<svg width="18" height="8" viewBox="0 0 18 8" fill="none" xmlns="http://www.w3.org/2000/svg">
<path d="M12.1768 4.17678C12.2744 4.07914 12.2744 3.92085 12.1768 3.82322L10.5858 2.23223C10.4882 2.1346 10.3299 2.1346 10.2322 2.23223C10.1346 2.32986 10.1346 2.48815 10.2322 2.58579L11.6464 4L10.2322 5.41421C10.1346 5.51184 10.1346 5.67013 10.2322 5.76777C10.3299 5.8654 10.4882 5.8654 10.5858 5.76777L12.1768 4.17678ZM2.18557e-08 4.25L1 4.25L1 3.75L-2.18557e-08 3.75L2.18557e-08 4.25ZM3 4.25L5 4.25L5 3.75L3 3.75L3 4.25ZM7 4.25L9 4.25L9 3.75L7 3.75L7 4.25ZM11 4.25L12 4.25L12 3.75L11 3.75L11 4.25ZM12.3536 4.35355C12.5488 4.15829 12.5488 3.84171 12.3536 3.64645L9.17157 0.464465C8.97631 0.269203 8.65973 0.269203 8.46447 0.464465C8.2692 0.659728 8.2692 0.97631 8.46447 1.17157L11.2929 4L8.46447 6.82843C8.2692 7.02369 8.2692 7.34027 8.46447 7.53553C8.65973 7.7308 8.97631 7.7308 9.17157 7.53553L12.3536 4.35355ZM4.37114e-08 4.5L1 4.5L1 3.5L-4.37114e-08 3.5L4.37114e-08 4.5ZM3 4.5L5 4.5L5 3.5L3 3.5L3 4.5ZM7 4.5L9 4.5L9 3.5L7 3.5L7 4.5ZM11 4.5L12 4.5L12 3.5L11 3.5L11 4.5Z" fill="#79863E"/>
</svg>
