<svg width="25" height="24" viewBox="0 0 25 24" fill="none" xmlns="http://www.w3.org/2000/svg">
<rect x="0.666992" width="24" height="24" rx="12" fill="#629BBB"/>
<path d="M19.3769 7.20986C19.284 7.11613 19.1734 7.04174 19.0515 6.99097C18.9297 6.9402 18.799 6.91406 18.6669 6.91406C18.5349 6.91406 18.4042 6.9402 18.2824 6.99097C18.1605 7.04174 18.0499 7.11613 17.9569 7.20986L10.5069 14.6699L7.37694 11.5299C7.28042 11.4366 7.16648 11.3633 7.04162 11.3141C6.91677 11.2649 6.78344 11.2408 6.64926 11.2431C6.51508 11.2454 6.38267 11.2741 6.2596 11.3276C6.13652 11.3811 6.02518 11.4583 5.93194 11.5549C5.8387 11.6514 5.76539 11.7653 5.71619 11.8902C5.66698 12.015 5.64285 12.1484 5.64517 12.2825C5.64749 12.4167 5.67622 12.5491 5.72972 12.6722C5.78321 12.7953 5.86042 12.9066 5.95694 12.9999L9.79694 16.8399C9.8899 16.9336 10.0005 17.008 10.1224 17.0588C10.2442 17.1095 10.3749 17.1357 10.5069 17.1357C10.639 17.1357 10.7697 17.1095 10.8915 17.0588C11.0134 17.008 11.124 16.9336 11.2169 16.8399L19.3769 8.67986C19.4784 8.58622 19.5595 8.47257 19.6149 8.34607C19.6703 8.21957 19.6989 8.08296 19.6989 7.94486C19.6989 7.80676 19.6703 7.67015 19.6149 7.54365C19.5595 7.41715 19.4784 7.3035 19.3769 7.20986Z" fill="white"/>
</svg>
