<svg width="24" height="25" viewBox="0 0 24 25" fill="none" xmlns="http://www.w3.org/2000/svg">
<rect y="0.00952148" width="24" height="24" rx="12" fill="#E4A400"/>
<path d="M18.7099 7.21938C18.617 7.12565 18.5064 7.05126 18.3845 7.00049C18.2627 6.94972 18.132 6.92358 17.9999 6.92358C17.8679 6.92358 17.7372 6.94972 17.6154 7.00049C17.4935 7.05126 17.3829 7.12565 17.2899 7.21938L9.83995 14.6794L6.70995 11.5394C6.61343 11.4461 6.49949 11.3728 6.37463 11.3236C6.24978 11.2744 6.11645 11.2503 5.98227 11.2526C5.84809 11.2549 5.71568 11.2837 5.5926 11.3372C5.46953 11.3906 5.35819 11.4679 5.26495 11.5644C5.17171 11.6609 5.0984 11.7748 5.04919 11.8997C4.99999 12.0246 4.97586 12.1579 4.97818 12.2921C4.9805 12.4262 5.00923 12.5587 5.06272 12.6817C5.11622 12.8048 5.19343 12.9161 5.28995 13.0094L9.12995 16.8494C9.22291 16.9431 9.33351 17.0175 9.45537 17.0683C9.57723 17.119 9.70794 17.1452 9.83995 17.1452C9.97196 17.1452 10.1027 17.119 10.2245 17.0683C10.3464 17.0175 10.457 16.9431 10.5499 16.8494L18.7099 8.68938C18.8115 8.59574 18.8925 8.48209 18.9479 8.35559C19.0033 8.22909 19.0319 8.09248 19.0319 7.95438C19.0319 7.81628 19.0033 7.67968 18.9479 7.55318C18.8925 7.42668 18.8115 7.31302 18.7099 7.21938Z" fill="white"/>
</svg>
