<svg width="200" height="60" viewBox="0 0 200 60" fill="none" xmlns="http://www.w3.org/2000/svg">
<path d="M5.60847 57.0795C4.71111 57.0795 3.94074 56.8932 3.29736 56.5207C2.66243 56.1482 2.17566 55.6191 1.83704 54.9334C1.49841 54.2392 1.3291 53.4223 1.3291 52.4826C1.3291 51.543 1.49841 50.7303 1.83704 50.0445C2.17566 49.3588 2.66243 48.8297 3.29736 48.4572C3.94074 48.0847 4.71111 47.8985 5.60847 47.8985C6.25185 47.8985 6.82328 47.9959 7.32275 48.1906C7.82222 48.3768 8.2582 48.6519 8.63069 49.016L8.19894 49.9683C7.79259 49.6128 7.39048 49.3588 6.99259 49.2064C6.60318 49.0456 6.15027 48.9652 5.63386 48.9652C4.64339 48.9652 3.88572 49.2699 3.36085 49.8795C2.83598 50.489 2.57355 51.3567 2.57355 52.4826C2.57355 53.6086 2.83598 54.4805 3.36085 55.0985C3.88572 55.708 4.64339 56.0128 5.63386 56.0128C6.15027 56.0128 6.60318 55.9366 6.99259 55.7842C7.39048 55.6234 7.79259 55.3652 8.19894 55.0096L8.63069 55.9493C8.2582 56.3133 7.81799 56.5927 7.31005 56.7874C6.81058 56.9821 6.24339 57.0795 5.60847 57.0795Z" fill="white"/>
<path d="M12.8568 57.0795C12.2303 57.0795 11.6885 56.9482 11.2314 56.6858C10.7742 56.4149 10.4187 56.034 10.1647 55.543C9.91075 55.0435 9.78376 54.4509 9.78376 53.7652C9.78376 53.0879 9.91075 52.5038 10.1647 52.0128C10.4187 51.5133 10.7742 51.1324 11.2314 50.8699C11.6885 50.599 12.2303 50.4636 12.8568 50.4636C13.4832 50.4636 14.025 50.599 14.4822 50.8699C14.9478 51.1324 15.3033 51.5133 15.5488 52.0128C15.8028 52.5038 15.9298 53.0879 15.9298 53.7652C15.9298 54.4509 15.8028 55.0435 15.5488 55.543C15.3033 56.034 14.9478 56.4149 14.4822 56.6858C14.025 56.9482 13.4832 57.0795 12.8568 57.0795ZM12.8568 56.1652C13.4324 56.1652 13.8938 55.962 14.2409 55.5556C14.588 55.1493 14.7615 54.5525 14.7615 53.7652C14.7615 52.9779 14.588 52.3853 14.2409 51.9874C13.8938 51.5895 13.4324 51.3906 12.8568 51.3906C12.2727 51.3906 11.807 51.5895 11.46 51.9874C11.1213 52.3853 10.952 52.9779 10.952 53.7652C10.952 54.5525 11.1213 55.1493 11.46 55.5556C11.807 55.962 12.2727 56.1652 12.8568 56.1652Z" fill="white"/>
<path d="M19.7509 57.0795C19.1922 57.0795 18.6716 57.0075 18.189 56.8636C17.7065 56.7197 17.3086 56.5165 16.9954 56.2541L17.3763 55.4541C17.6896 55.708 18.0451 55.8985 18.443 56.0255C18.8409 56.1525 19.2726 56.216 19.7382 56.216C20.3478 56.216 20.788 56.1271 21.0589 55.9493C21.3382 55.7631 21.4779 55.4964 21.4779 55.1493C21.4779 54.8191 21.3636 54.5694 21.1351 54.4001C20.9065 54.2308 20.5721 54.1461 20.1319 54.1461H18.5827V53.308H19.9922C20.3901 53.308 20.6991 53.2234 20.9192 53.0541C21.1478 52.8763 21.262 52.635 21.262 52.3303C21.262 52.017 21.1351 51.7715 20.8811 51.5937C20.6271 51.4075 20.2377 51.3144 19.7128 51.3144C19.2726 51.3144 18.8705 51.3736 18.5065 51.4922C18.1425 51.6022 17.7954 51.7715 17.4652 52.0001L17.097 51.2509C17.444 50.98 17.8504 50.781 18.316 50.6541C18.7816 50.5271 19.2896 50.4636 19.8398 50.4636C20.6441 50.4636 21.2578 50.6202 21.6811 50.9334C22.1128 51.2382 22.3287 51.6742 22.3287 52.2414C22.3287 52.6392 22.1933 52.9821 21.9224 53.2699C21.6515 53.5493 21.2917 53.7186 20.843 53.7779V53.6128C21.3509 53.6382 21.7615 53.7948 22.0747 54.0826C22.388 54.362 22.5446 54.7345 22.5446 55.2001C22.5446 55.7673 22.3075 56.2244 21.8335 56.5715C21.3594 56.9101 20.6652 57.0795 19.7509 57.0795Z" fill="white"/>
<path d="M23.5536 58.616V56.0636H24.252C24.5398 55.6318 24.7473 55.1239 24.8742 54.5398C25.0097 53.9556 25.0774 53.2615 25.0774 52.4572V50.5779H29.6615V56.0636H30.6774V58.616H29.6869V56.9652H24.5568V58.616H23.5536ZM25.3441 56.0763H28.5822V51.4668H26.0933V52.6604C26.0933 53.3038 26.0298 53.9303 25.9028 54.5398C25.7758 55.1408 25.5896 55.653 25.3441 56.0763Z" fill="white"/>
<path d="M34.4902 57.0795C33.9315 57.0795 33.4405 56.9482 33.0172 56.6858C32.5939 56.4234 32.2638 56.0424 32.0267 55.543C31.7897 55.0435 31.6712 54.4509 31.6712 53.7652C31.6712 53.0795 31.7897 52.4911 32.0267 52.0001C32.2638 51.5006 32.5939 51.1197 33.0172 50.8572C33.4405 50.5948 33.9315 50.4636 34.4902 50.4636C35.0574 50.4636 35.5484 50.6075 35.9632 50.8953C36.3865 51.1747 36.6659 51.5599 36.8013 52.0509H36.6489L36.7886 50.5779H37.9061C37.8807 50.8318 37.8553 51.0858 37.8299 51.3398C37.813 51.5937 37.8045 51.8435 37.8045 52.089V56.9652H36.6489V55.5049H36.7886C36.6532 55.9874 36.3738 56.3726 35.9505 56.6604C35.5357 56.9398 35.0489 57.0795 34.4902 57.0795ZM34.7569 56.1652C35.3325 56.1652 35.7939 55.962 36.141 55.5556C36.4881 55.1493 36.6616 54.5525 36.6616 53.7652C36.6616 52.9779 36.4881 52.3853 36.141 51.9874C35.7939 51.5895 35.3325 51.3906 34.7569 51.3906C34.1812 51.3906 33.7156 51.5895 33.3601 51.9874C33.013 52.3853 32.8394 52.9779 32.8394 53.7652C32.8394 54.5525 33.013 55.1493 33.3601 55.5556C33.7071 55.962 34.1728 56.1652 34.7569 56.1652Z" fill="white"/>
<path d="M39.8389 56.9652V50.5779H42.9881C43.7416 50.5779 44.3003 50.7218 44.6643 51.0096C45.0368 51.2974 45.223 51.7123 45.223 52.2541C45.223 52.6604 45.0834 53.0033 44.804 53.2826C44.5246 53.5535 44.1606 53.7186 43.7119 53.7779V53.6128C44.2453 53.6297 44.6643 53.7863 44.9691 54.0826C45.2823 54.3705 45.4389 54.743 45.4389 55.2001C45.4389 55.7419 45.2315 56.1736 44.8167 56.4953C44.4104 56.8086 43.8389 56.9652 43.1024 56.9652H39.8389ZM40.931 56.2033H43.0262C43.458 56.2033 43.7881 56.1144 44.0167 55.9366C44.2453 55.7504 44.3596 55.4879 44.3596 55.1493C44.3596 54.8022 44.2453 54.5398 44.0167 54.362C43.7881 54.1842 43.458 54.0953 43.0262 54.0953H40.931V56.2033ZM40.931 53.3334H42.8865C43.2844 53.3334 43.5934 53.2445 43.8135 53.0668C44.0336 52.889 44.1437 52.6435 44.1437 52.3303C44.1437 52.0086 44.0336 51.7631 43.8135 51.5937C43.5934 51.4244 43.2844 51.3398 42.8865 51.3398H40.931V53.3334Z" fill="white"/>
<path d="M49.4704 57.0795C48.9116 57.0795 48.4206 56.9482 47.9974 56.6858C47.5741 56.4234 47.2439 56.0424 47.0069 55.543C46.7698 55.0435 46.6513 54.4509 46.6513 53.7652C46.6513 53.0795 46.7698 52.4911 47.0069 52.0001C47.2439 51.5006 47.5741 51.1197 47.9974 50.8572C48.4206 50.5948 48.9116 50.4636 49.4704 50.4636C50.0376 50.4636 50.5286 50.6075 50.9434 50.8953C51.3667 51.1747 51.646 51.5599 51.7815 52.0509H51.6291L51.7688 50.5779H52.8862C52.8608 50.8318 52.8355 51.0858 52.8101 51.3398C52.7931 51.5937 52.7847 51.8435 52.7847 52.089V56.9652H51.6291V55.5049H51.7688C51.6333 55.9874 51.354 56.3726 50.9307 56.6604C50.5159 56.9398 50.0291 57.0795 49.4704 57.0795ZM49.737 56.1652C50.3127 56.1652 50.7741 55.962 51.1212 55.5556C51.4683 55.1493 51.6418 54.5525 51.6418 53.7652C51.6418 52.9779 51.4683 52.3853 51.1212 51.9874C50.7741 51.5895 50.3127 51.3906 49.737 51.3906C49.1614 51.3906 48.6958 51.5895 48.3402 51.9874C47.9931 52.3853 47.8196 52.9779 47.8196 53.7652C47.8196 54.5525 47.9931 55.1493 48.3402 55.5556C48.6873 55.962 49.1529 56.1652 49.737 56.1652Z" fill="white"/>
<path d="M54.3111 56.9652L55.3143 55.2255C55.4752 54.9461 55.6783 54.7218 55.9238 54.5525C56.1693 54.3747 56.4275 54.2858 56.6984 54.2858H56.9016L56.8889 54.4001C56.1693 54.4001 55.6064 54.2392 55.2 53.9176C54.7937 53.5874 54.5905 53.1133 54.5905 52.4953C54.5905 51.8858 54.7895 51.416 55.1873 51.0858C55.5852 50.7472 56.1778 50.5779 56.9651 50.5779H59.8731V56.9652H58.8064V54.5525H57.8921C57.5619 54.5525 57.2783 54.6371 57.0413 54.8064C56.8043 54.9673 56.6096 55.1832 56.4572 55.4541L55.5937 56.9652H54.3111ZM57.1683 53.7525H58.8064V51.3652H57.1683C56.6688 51.3652 56.2963 51.471 56.0508 51.6826C55.8138 51.8943 55.6953 52.1863 55.6953 52.5588C55.6953 52.9398 55.8138 53.2361 56.0508 53.4477C56.2963 53.6509 56.6688 53.7525 57.1683 53.7525Z" fill="white"/>
<path d="M67.0525 57.0795C66.5869 57.0795 66.1382 57.0075 65.7065 56.8636C65.2832 56.7112 64.953 56.5038 64.716 56.2414L65.097 55.4795C65.3425 55.7165 65.6303 55.8985 65.9604 56.0255C66.2991 56.144 66.6377 56.2033 66.9763 56.2033C67.6282 56.2033 68.1403 56.0043 68.5128 55.6064C68.8938 55.2086 69.097 54.6371 69.1224 53.8922L69.262 54.1334H65.9097V53.2953H69.2747L69.1224 53.5366C69.097 53.0964 69.0038 52.7112 68.843 52.381C68.6821 52.0509 68.4493 51.7927 68.1446 51.6064C67.8398 51.4202 67.4504 51.3271 66.9763 51.3271C66.6462 51.3271 66.3118 51.3863 65.9732 51.5049C65.643 51.6234 65.3509 51.8054 65.097 52.0509L64.716 51.289C64.9784 51.035 65.3213 50.8361 65.7446 50.6922C66.1763 50.5398 66.6165 50.4636 67.0652 50.4636C67.7086 50.4636 68.2673 50.5948 68.7414 50.8572C69.2155 51.1112 69.5795 51.4837 69.8335 51.9747C70.0874 52.4657 70.2144 53.0583 70.2144 53.7525C70.2144 54.4382 70.0832 55.035 69.8208 55.543C69.5668 56.0424 69.2028 56.4234 68.7287 56.6858C68.2546 56.9482 67.6959 57.0795 67.0525 57.0795Z" fill="white"/>
<path d="M71.8578 56.9652V50.5779H72.8229L75.1721 54.7556L77.534 50.5779H78.4863V56.9652H77.4705V51.8731H77.7498L75.4641 55.9366H74.8927L72.607 51.8604H72.8736V56.9652H71.8578Z" fill="white"/>
<path d="M83.1941 57.0795C82.5676 57.0795 82.0258 56.9482 81.5687 56.6858C81.1115 56.4149 80.756 56.034 80.502 55.543C80.2481 55.0435 80.1211 54.4509 80.1211 53.7652C80.1211 53.0879 80.2481 52.5038 80.502 52.0128C80.756 51.5133 81.1115 51.1324 81.5687 50.8699C82.0258 50.599 82.5676 50.4636 83.1941 50.4636C83.8205 50.4636 84.3623 50.599 84.8195 50.8699C85.2851 51.1324 85.6406 51.5133 85.8861 52.0128C86.1401 52.5038 86.2671 53.0879 86.2671 53.7652C86.2671 54.4509 86.1401 55.0435 85.8861 55.543C85.6406 56.034 85.2851 56.4149 84.8195 56.6858C84.3623 56.9482 83.8205 57.0795 83.1941 57.0795ZM83.1941 56.1652C83.7697 56.1652 84.2311 55.962 84.5782 55.5556C84.9253 55.1493 85.0988 54.5525 85.0988 53.7652C85.0988 52.9779 84.9253 52.3853 84.5782 51.9874C84.2311 51.5895 83.7697 51.3906 83.1941 51.3906C82.61 51.3906 82.1443 51.5895 81.7973 51.9874C81.4586 52.3853 81.2893 52.9779 81.2893 53.7652C81.2893 54.5525 81.4586 55.1493 81.7973 55.5556C82.1443 55.962 82.61 56.1652 83.1941 56.1652Z" fill="white"/>
<path d="M93.4406 58.616V56.9652H87.9168V50.5779H89.0597V56.0636H92.2597V50.5779H93.4025V56.0636H94.4184V58.616H93.4406Z" fill="white"/>
<path d="M95.7417 56.9652V50.5779H96.7957V55.8731H96.4528L100.415 50.5779H101.38V56.9652H100.326V51.6572H100.681L96.7068 56.9652H95.7417Z" fill="white"/>
<path d="M103.356 56.9652V50.5779H104.41V55.8731H104.067L108.029 50.5779H108.994V56.9652H107.94V51.6572H108.295L104.321 56.9652H103.356Z" fill="white"/>
<path d="M117.197 59.3271V47.9366H118.353V59.3271H117.197Z" fill="white"/>
<path d="M126.52 56.9652V52.1398C126.52 51.8858 126.511 51.6276 126.494 51.3652C126.486 51.0943 126.465 50.8318 126.431 50.5779H127.548L127.688 52.1779L127.497 52.1906C127.582 51.8012 127.726 51.4795 127.929 51.2255C128.141 50.9631 128.39 50.7726 128.678 50.6541C128.975 50.5271 129.279 50.4636 129.593 50.4636C129.728 50.4636 129.842 50.4678 129.935 50.4763C130.029 50.4847 130.122 50.5059 130.215 50.5398L130.189 51.5683C130.062 51.5176 129.944 51.4879 129.834 51.4795C129.732 51.4625 129.605 51.4541 129.453 51.4541C129.08 51.4541 128.759 51.5387 128.488 51.708C128.225 51.8773 128.022 52.1017 127.878 52.381C127.743 52.6604 127.675 52.9609 127.675 53.2826V56.9652H126.52Z" fill="white"/>
<path d="M133.837 57.0795C133.211 57.0795 132.669 56.9482 132.212 56.6858C131.755 56.4149 131.399 56.034 131.145 55.543C130.891 55.0435 130.764 54.4509 130.764 53.7652C130.764 53.0879 130.891 52.5038 131.145 52.0128C131.399 51.5133 131.755 51.1324 132.212 50.8699C132.669 50.599 133.211 50.4636 133.837 50.4636C134.464 50.4636 135.006 50.599 135.463 50.8699C135.928 51.1324 136.284 51.5133 136.529 52.0128C136.783 52.5038 136.91 53.0879 136.91 53.7652C136.91 54.4509 136.783 55.0435 136.529 55.543C136.284 56.034 135.928 56.4149 135.463 56.6858C135.006 56.9482 134.464 57.0795 133.837 57.0795ZM133.837 56.1652C134.413 56.1652 134.874 55.962 135.222 55.5556C135.569 55.1493 135.742 54.5525 135.742 53.7652C135.742 52.9779 135.569 52.3853 135.222 51.9874C134.874 51.5895 134.413 51.3906 133.837 51.3906C133.253 51.3906 132.788 51.5895 132.441 51.9874C132.102 52.3853 131.933 52.9779 131.933 53.7652C131.933 54.5525 132.102 55.1493 132.441 55.5556C132.788 55.962 133.253 56.1652 133.837 56.1652Z" fill="white"/>
<path d="M138.462 59.708V52.089C138.462 51.8435 138.453 51.5937 138.436 51.3398C138.42 51.0858 138.394 50.8318 138.36 50.5779H139.478L139.617 52.0509H139.478C139.605 51.5599 139.876 51.1747 140.29 50.8953C140.705 50.6075 141.2 50.4636 141.776 50.4636C142.343 50.4636 142.839 50.5948 143.262 50.8572C143.685 51.1197 144.011 51.5006 144.24 52.0001C144.477 52.4911 144.595 53.0795 144.595 53.7652C144.595 54.4509 144.477 55.0435 144.24 55.543C144.011 56.0424 143.685 56.4234 143.262 56.6858C142.839 56.9482 142.343 57.0795 141.776 57.0795C141.209 57.0795 140.718 56.9398 140.303 56.6604C139.897 56.3726 139.622 55.9874 139.478 55.5049H139.617V59.708H138.462ZM141.509 56.1652C142.094 56.1652 142.559 55.962 142.906 55.5556C143.253 55.1493 143.427 54.5525 143.427 53.7652C143.427 52.9779 143.253 52.3853 142.906 51.9874C142.559 51.5895 142.094 51.3906 141.509 51.3906C140.925 51.3906 140.46 51.5895 140.113 51.9874C139.774 52.3853 139.605 52.9779 139.605 53.7652C139.605 54.5525 139.774 55.1493 140.113 55.5556C140.46 55.962 140.925 56.1652 141.509 56.1652Z" fill="white"/>
<path d="M149.058 57.0795C148.042 57.0795 147.238 56.7874 146.646 56.2033C146.061 55.6191 145.769 54.8149 145.769 53.7906C145.769 53.1133 145.896 52.5292 146.15 52.0382C146.413 51.5387 146.773 51.1535 147.23 50.8826C147.687 50.6033 148.22 50.4636 148.83 50.4636C149.414 50.4636 149.909 50.5906 150.315 50.8445C150.722 51.09 151.031 51.4414 151.242 51.8985C151.454 52.3556 151.56 52.8974 151.56 53.5239V53.9049H146.671V53.2191H150.773L150.557 53.3842C150.557 52.7239 150.409 52.2117 150.112 51.8477C149.824 51.4837 149.397 51.3017 148.83 51.3017C148.212 51.3017 147.733 51.5176 147.395 51.9493C147.056 52.3726 146.887 52.9525 146.887 53.689V53.8033C146.887 54.5821 147.077 55.1705 147.458 55.5683C147.848 55.9662 148.385 56.1652 149.071 56.1652C149.452 56.1652 149.807 56.1101 150.138 56.0001C150.468 55.89 150.785 55.708 151.09 55.4541L151.471 56.2541C151.183 56.5165 150.823 56.7197 150.392 56.8636C149.968 57.0075 149.524 57.0795 149.058 57.0795Z" fill="white"/>
<path d="M153.155 53.9556V53.016H156.825V53.9556H153.155Z" fill="white"/>
<path d="M158.688 59.708V52.089C158.688 51.8435 158.679 51.5937 158.662 51.3398C158.645 51.0858 158.62 50.8318 158.586 50.5779H159.703L159.843 52.0509H159.703C159.83 51.5599 160.101 51.1747 160.516 50.8953C160.931 50.6075 161.426 50.4636 162.002 50.4636C162.569 50.4636 163.064 50.5948 163.488 50.8572C163.911 51.1197 164.237 51.5006 164.465 52.0001C164.702 52.4911 164.821 53.0795 164.821 53.7652C164.821 54.4509 164.702 55.0435 164.465 55.543C164.237 56.0424 163.911 56.4234 163.488 56.6858C163.064 56.9482 162.569 57.0795 162.002 57.0795C161.435 57.0795 160.944 56.9398 160.529 56.6604C160.122 56.3726 159.847 55.9874 159.703 55.5049H159.843V59.708H158.688ZM161.735 56.1652C162.319 56.1652 162.785 55.962 163.132 55.5556C163.479 55.1493 163.653 54.5525 163.653 53.7652C163.653 52.9779 163.479 52.3853 163.132 51.9874C162.785 51.5895 162.319 51.3906 161.735 51.3906C161.151 51.3906 160.685 51.5895 160.338 51.9874C160 52.3853 159.83 52.9779 159.83 53.7652C159.83 54.5525 160 55.1493 160.338 55.5556C160.685 55.962 161.151 56.1652 161.735 56.1652Z" fill="white"/>
<path d="M168.814 57.0795C168.255 57.0795 167.764 56.9482 167.341 56.6858C166.918 56.4234 166.588 56.0424 166.351 55.543C166.114 55.0435 165.995 54.4509 165.995 53.7652C165.995 53.0795 166.114 52.4911 166.351 52.0001C166.588 51.5006 166.918 51.1197 167.341 50.8572C167.764 50.5948 168.255 50.4636 168.814 50.4636C169.381 50.4636 169.872 50.6075 170.287 50.8953C170.71 51.1747 170.99 51.5599 171.125 52.0509H170.973L171.113 50.5779H172.23C172.205 50.8318 172.179 51.0858 172.154 51.3398C172.137 51.5937 172.128 51.8435 172.128 52.089V56.9652H170.973V55.5049H171.113C170.977 55.9874 170.698 56.3726 170.274 56.6604C169.86 56.9398 169.373 57.0795 168.814 57.0795ZM169.081 56.1652C169.656 56.1652 170.118 55.962 170.465 55.5556C170.812 55.1493 170.986 54.5525 170.986 53.7652C170.986 52.9779 170.812 52.3853 170.465 51.9874C170.118 51.5895 169.656 51.3906 169.081 51.3906C168.505 51.3906 168.04 51.5895 167.684 51.9874C167.337 52.3853 167.163 52.9779 167.163 53.7652C167.163 54.5525 167.337 55.1493 167.684 55.5556C168.031 55.962 168.497 56.1652 169.081 56.1652Z" fill="white"/>
<path d="M174.052 56.9652V52.1398C174.052 51.8858 174.043 51.6276 174.026 51.3652C174.018 51.0943 173.997 50.8318 173.963 50.5779H175.08L175.22 52.1779L175.03 52.1906C175.114 51.8012 175.258 51.4795 175.461 51.2255C175.673 50.9631 175.923 50.7726 176.211 50.6541C176.507 50.5271 176.812 50.4636 177.125 50.4636C177.26 50.4636 177.375 50.4678 177.468 50.4763C177.561 50.4847 177.654 50.5059 177.747 50.5398L177.722 51.5683C177.595 51.5176 177.476 51.4879 177.366 51.4795C177.265 51.4625 177.138 51.4541 176.985 51.4541C176.613 51.4541 176.291 51.5387 176.02 51.708C175.758 51.8773 175.554 52.1017 175.411 52.381C175.275 52.6604 175.207 52.9609 175.207 53.2826V56.9652H174.052Z" fill="white"/>
<path d="M178.764 56.9652V47.6191H179.92V53.3969H179.945L182.828 50.5779H184.263L180.834 53.9303L180.847 53.3842L184.568 56.9652H183.095L179.945 53.9937H179.92V56.9652H178.764Z" fill="white"/>
<path d="M185.37 56.9652V55.5556H186.779V56.9652H185.37Z" fill="white"/>
<path d="M188.511 56.9652V52.1398C188.511 51.8858 188.503 51.6276 188.486 51.3652C188.477 51.0943 188.456 50.8318 188.422 50.5779H189.54L189.679 52.1779L189.489 52.1906C189.574 51.8012 189.717 51.4795 189.921 51.2255C190.132 50.9631 190.382 50.7726 190.67 50.6541C190.966 50.5271 191.271 50.4636 191.584 50.4636C191.72 50.4636 191.834 50.4678 191.927 50.4763C192.02 50.4847 192.113 50.5059 192.206 50.5398L192.181 51.5683C192.054 51.5176 191.935 51.4879 191.825 51.4795C191.724 51.4625 191.597 51.4541 191.444 51.4541C191.072 51.4541 190.75 51.5387 190.479 51.708C190.217 51.8773 190.014 52.1017 189.87 52.381C189.734 52.6604 189.667 52.9609 189.667 53.2826V56.9652H188.511Z" fill="white"/>
<path d="M195.497 57.0795C194.726 57.0795 194.146 56.8721 193.757 56.4572C193.376 56.0424 193.186 55.4033 193.186 54.5398V50.5779H194.341V54.5144C194.341 55.0731 194.455 55.4837 194.684 55.7461C194.913 56.0086 195.268 56.1398 195.751 56.1398C196.276 56.1398 196.699 55.9662 197.021 55.6191C197.351 55.2636 197.516 54.7937 197.516 54.2096V50.5779H198.671V56.9652H197.554V55.5556H197.719C197.541 56.0382 197.258 56.4149 196.868 56.6858C196.479 56.9482 196.022 57.0795 195.497 57.0795Z" fill="white"/>
<path d="M109.079 28.8969C105.047 28.8969 102.278 25.8372 102.278 22.0976C102.278 18.358 104.804 15.2983 109.079 15.2983C113.354 15.2983 115.881 18.358 115.881 22.0976C115.881 25.8372 113.112 28.8969 109.079 28.8969ZM100.225 44.0495C101.064 44.0495 101.744 43.3695 101.744 42.5306V31.228C103.444 33.8506 107.185 34.6277 109.711 34.6277C117.387 34.6277 121.807 29.0911 121.807 22.0976C121.807 15.0555 116.901 9.56754 109.517 9.56754C106.796 9.56754 103.59 10.7331 101.744 13.4043L101.513 11.4432C101.423 10.6782 100.775 10.1018 100.004 10.1018H95.8169V42.5306C95.8169 43.3695 96.4969 44.0495 97.3358 44.0495H100.225Z" fill="white"/>
<path d="M144.98 13.4043C143.62 11.0245 140.56 9.51897 137.353 9.51897C130.358 9.4704 124.868 13.7928 124.868 22.049C124.868 30.451 130.115 34.8219 137.208 34.7734C139.879 34.7248 143.62 33.365 144.98 30.5481L145.156 32.6521C145.221 33.4394 145.88 34.0449 146.67 34.0449H149.34C150.179 34.0449 150.859 33.3648 150.859 32.5259V11.6207C150.859 10.7818 150.179 10.1018 149.34 10.1018H146.607C145.803 10.1018 145.138 10.7286 145.091 11.5315L144.98 13.4043ZM137.888 14.8127C147.215 14.8127 147.215 29.334 137.888 29.334C133.953 29.334 130.795 26.6143 130.795 22.049C130.795 17.4838 133.953 14.8127 137.888 14.8127Z" fill="white"/>
<path d="M179.075 0.0971311C178.236 0.0971311 177.556 0.777188 177.556 1.61608V32.5259C177.556 33.3648 178.236 34.0449 179.075 34.0449H181.964C182.803 34.0449 183.483 33.3648 183.483 32.5259V23.2146L192.405 33.5201C192.693 33.8534 193.112 34.0449 193.553 34.0449H199.685C199.859 34.0449 200 33.9037 200 33.7297C200 33.6512 199.971 33.5756 199.918 33.5176L189.796 22.3821C189.273 21.8064 189.269 20.9284 189.787 20.3483L198.577 10.5118C198.618 10.4667 198.64 10.4083 198.64 10.3478C198.64 10.2119 198.53 10.1018 198.394 10.1018H192.256C191.807 10.1018 191.38 10.3005 191.092 10.6447L183.483 19.7179V1.61608C183.483 0.777189 182.803 0.0971311 181.964 0.0971311H179.075Z" fill="white"/>
<path fill-rule="evenodd" clip-rule="evenodd" d="M167.053 9.65403C164.908 10.1241 162.586 11.5841 161.991 15.0185L161.677 11.4862C161.607 10.7025 160.951 10.1018 160.164 10.1018H157.583C156.745 10.1018 156.064 10.7818 156.064 11.6207V32.5259C156.064 33.3648 156.745 34.0449 157.583 34.0449H160.472C161.311 34.0449 161.991 33.3648 161.991 32.5259V21.4177C161.991 17.4836 162.627 15.2486 165.992 15.3491C165.378 14.8929 164.989 14.5658 164.672 14.1221C164.49 13.8666 164.352 13.6176 164.278 13.414C164.251 13.3391 164.231 13.267 164.221 13.2008C163.455 13.648 162.683 14.3192 162.024 15.1307C162.651 14.1318 163.426 13.3448 164.323 12.8854C164.943 12.568 165.57 12.3407 166.122 12.1431C166.11 11.9822 166.132 11.7769 166.174 11.5585C166.227 11.289 166.316 10.9863 166.429 10.6967C166.542 10.4077 166.641 10.2262 167.053 9.65403ZM165.992 15.3491C166.294 15.373 167.022 15.4362 167.366 15.4942C168.856 15.7455 170.181 15.3328 171.104 14.9701C170.761 15.0082 170.197 14.9043 169.91 14.7252C169.542 14.4961 169.155 14.2154 168.852 13.8645C168.549 13.5137 168.295 13.1282 168.132 12.7662C168 12.4737 167.922 12.1833 167.937 11.9349C167.393 12.002 166.84 12.1279 166.285 12.3267L166.253 12.3378C165.693 12.5384 165.066 12.7629 164.447 13.0779C164.444 13.0845 164.441 13.0988 164.442 13.1258C164.444 13.1754 164.459 13.246 164.492 13.336C164.557 13.5146 164.683 13.7453 164.857 13.9898C165.207 14.4799 165.086 14.3164 165.992 15.3491ZM171.104 14.9701C171.156 14.9486 171.208 14.927 171.26 14.9054C172.389 14.437 173.596 13.873 175.626 14.1953C175.365 13.9893 174.721 13.6471 173.89 13.2107C172.842 12.6601 171.435 12.0959 169.885 11.927C169.33 11.8666 168.755 11.8549 168.168 11.9099C168.145 12.1064 168.204 12.3706 168.34 12.6727C168.492 13.0112 168.733 13.3783 169.025 13.7158C169.316 14.0532 169.654 14.3571 169.999 14.5716C170.345 14.787 170.443 14.8504 171.104 14.9701ZM175.626 14.1953C175.035 12.977 173.727 11.5504 172.513 10.7276C172.101 10.7716 171.143 10.9672 170.169 11.7327C171.654 11.9369 172.991 12.4811 173.996 13.0092C174.799 13.4311 175.332 13.967 175.626 14.1953ZM172.513 10.7276C171.269 9.94795 169.901 9.4704 168.744 9.4704C168.363 9.4704 167.475 9.58853 167.053 9.65403C166.787 10.1521 166.623 10.6693 166.612 10.6967C166.504 10.9744 166.448 11.3471 166.398 11.6024C166.362 11.7843 166.345 11.9425 166.346 12.0641C166.923 11.8697 167.497 11.7507 168.06 11.6919C168.675 11.6275 169.278 11.6353 169.859 11.6953C170.79 10.871 171.903 10.7556 172.513 10.7276Z" fill="white"/>
<path d="M71.39 33.7281C71.39 33.6506 71.3616 33.5758 71.3101 33.5178L61.0909 22.0005C67.5521 20.6892 69.6897 15.9783 69.6897 11.3159C69.6897 8.97557 69.0193 6.71996 67.7062 4.84972C67.6641 4.78977 67.6214 4.73023 67.578 4.67108C67.2657 4.24562 66.9193 3.84115 66.5392 3.46137C64.4809 1.40526 61.4324 0.0727101 57.4473 0.0485655C52.5612 0.0485655 47.6751 0.00869183 42.789 0.00120406C41.9501 -8.1503e-05 41.27 0.680057 41.27 1.51895V32.5259C41.27 33.3648 41.9501 34.0449 42.789 34.0449H46.1637C47.0026 34.0449 47.6827 33.3648 47.6827 32.5259V6.02221H57.4473C61.4795 6.02221 63.277 8.74191 63.277 11.4616C63.277 14.1813 61.5281 16.901 57.4473 16.901H51.7406C50.4254 16.901 49.7317 18.4588 50.6117 19.4362L63.3103 33.5422C63.5983 33.8622 64.0087 34.0449 64.4392 34.0449H71.0732C71.2481 34.0449 71.39 33.903 71.39 33.7281Z" fill="white"/>
<path fill-rule="evenodd" clip-rule="evenodd" d="M91.6878 22.1462L91.8531 22.0317L91.9294 21.9299L92.0693 21.8154C92.1583 21.6967 92.3185 21.4516 92.2473 21.4211C92.1761 21.3906 92.0735 21.2473 92.0311 21.1794H91.8022C91.7429 21.1582 91.6217 21.1158 91.6115 21.1158C91.5988 21.1158 91.4335 21.1285 91.4207 21.154C91.408 21.1794 91.3317 21.2303 91.2936 21.2939C91.2554 21.3575 91.1791 21.4338 91.1664 21.4465C91.1537 21.4593 91.0901 21.5101 91.0647 21.5356C91.0392 21.561 90.9757 21.5865 90.9629 21.6119C90.9502 21.6374 90.8612 21.6882 90.8485 21.6882H90.734H90.5814L90.2762 21.6119L89.9456 21.5356L89.704 21.4847L89.4878 21.4211L89.2208 21.3575L89.0427 21.3321L88.852 21.243L88.6612 21.1794L88.3815 21.154L88.0254 21.1031L87.682 21.0649L87.3769 21.014L87.2878 20.9632L87.2497 20.925L87.2751 20.8868C87.2751 20.8911 87.2802 20.897 87.3005 20.8868C87.326 20.8741 87.3387 20.8868 87.3514 20.8868H87.4023L87.4277 20.8614L87.4404 20.8232L87.4531 20.7851C87.4616 20.7893 87.4811 20.7953 87.4913 20.7851C87.5015 20.7749 87.5634 20.7724 87.593 20.7724H87.6566C87.6693 20.7596 87.6948 20.7317 87.6948 20.7215C87.6948 20.7113 87.7117 20.6748 87.7202 20.6579L87.7329 20.518V20.378L87.7456 20.2635L87.7584 20.1745C87.7668 20.1575 87.7838 20.1211 87.7838 20.1109C87.7838 20.1007 87.8092 20.0643 87.8219 20.0473C87.8304 20.0388 87.8525 20.0193 87.8728 20.0091C87.8982 19.9964 87.9237 19.971 87.9364 19.9583C87.9466 19.9481 87.983 19.9201 88 19.9074C88.0169 19.9074 88.0483 19.887 88.0381 19.8056C88.0279 19.7242 88.0339 19.5088 88.0381 19.4113C88.0551 19.4113 88.0915 19.4087 88.1017 19.3986C88.1144 19.3858 88.1526 19.424 88.1907 19.3731C88.2289 19.3222 88.2416 19.3095 88.2416 19.2841C88.2416 19.2586 88.2416 19.2205 88.2289 19.2077C88.2187 19.1976 88.1992 19.1102 88.1907 19.0678L88.1526 18.8389C88.1398 18.7583 88.1017 18.6226 88.0763 18.5844C88.0508 18.5336 87.9618 18.3555 87.9491 18.3428C87.9389 18.3428 87.894 18.2749 87.8728 18.241L87.7838 18.1647L87.7075 18.0883L87.593 17.9866L87.4659 17.9103L87.3514 17.8467L87.237 17.7958L87.1098 17.7576L87.0335 17.7322L86.9063 17.694L86.7537 17.6686H86.6266L86.4867 17.6559H86.4104H86.2832H86.2069H86.1179H86.0035L85.9017 17.694L85.7746 17.7195L85.6855 17.7576L85.5457 17.8339L85.4566 17.8975L85.3676 17.9484C85.3464 17.9696 85.304 18.0146 85.304 18.0247C85.304 18.0349 85.2786 18.0799 85.2659 18.1011C85.2532 18.1265 85.2252 18.1774 85.215 18.1774C85.2023 18.1774 85.1769 18.241 85.1769 18.2537C85.1769 18.2664 85.1387 18.3428 85.1387 18.3555C85.1387 18.3657 85.1302 18.4276 85.126 18.4572C85.126 18.4784 85.1235 18.5234 85.1133 18.5336C85.1006 18.5463 85.1006 18.6353 85.0751 18.559C85.0548 18.4979 85.0412 18.4148 85.037 18.3809L85.0116 18.2792L84.9734 18.1647L84.9353 18.0247L84.8844 17.8721L84.8717 17.7958L84.8971 17.7322L84.9353 17.6686L84.9098 17.6177L84.8335 17.5922L84.7445 17.5286L84.7064 17.4778L84.6936 17.3887L84.6555 16.8799L84.4902 16.3711L84.2358 15.7096L84.0451 15.099L83.9434 14.7556L83.7653 14.2213L83.5746 14.0051L83.4728 13.9033V13.7507V13.6362C83.4517 13.5853 83.4093 13.481 83.4093 13.4708C83.4093 13.4606 83.3754 13.3563 83.3584 13.3055L83.4255 13.2287L83.5746 13.2037L83.4728 12.9238L83.5059 12.8798L83.5746 13.2037L83.808 13.051C83.7953 12.9366 83.6991 12.6106 83.5059 12.6106C83.3173 12.6106 81.282 12.1128 80.2791 12.1692C80.2537 12.1706 80.2289 12.172 80.2047 12.1733C80.1802 12.1711 80.0486 12.2831 79.9784 12.4414C79.9146 12.5852 79.9014 12.7671 80.0648 12.9366C80.1241 12.9366 80.2606 12.9467 80.3318 12.9874C80.4031 13.0282 80.4717 13.1062 80.4972 13.1401L80.5226 13.28L80.4972 13.4835L80.4209 13.8524V13.9924V14.145C80.4209 14.1704 80.4081 14.2977 80.3954 14.3231C80.3853 14.3434 80.2301 14.781 80.1538 14.9973L80.0648 15.328C80.0436 15.4128 79.9936 15.5951 79.9631 15.646C79.9325 15.6969 79.891 15.9471 79.874 16.0658L79.7723 16.3711L79.6579 16.7018C79.6409 16.7273 79.5994 16.7985 79.5688 16.8799C79.5383 16.9613 79.4714 17.0834 79.4417 17.1343L79.3018 17.3887C79.2891 17.4608 79.2611 17.6177 79.2509 17.6686C79.2408 17.7195 79.2467 17.8679 79.2509 17.9357V18.1647C79.2509 18.1748 79.1831 18.2961 79.1492 18.3555L79.0983 18.559C79.1153 18.5887 79.139 18.6633 79.0983 18.7244C79.0576 18.7854 79.0136 18.8601 78.9966 18.8897H78.8567C78.8101 18.9406 78.7168 19.0526 78.7168 19.0933V19.3222C78.7168 19.3629 78.6744 19.4579 78.6533 19.5003L78.5007 19.6275C78.4244 19.6911 78.2616 19.8234 78.2209 19.8438C78.17 19.8692 77.992 19.971 77.9411 20.0091C77.8903 20.0473 77.6741 20.1491 77.5978 20.1872C77.5215 20.2254 77.2926 20.2381 77.2417 20.2763C77.1908 20.3144 77.051 20.3399 76.9874 20.4162C76.9238 20.4925 76.7585 20.6197 76.6949 20.6833C76.6313 20.7469 76.466 20.836 76.3643 20.9123C76.2625 20.9886 76.1226 21.0777 76.0463 21.154C75.97 21.2303 75.8937 21.2939 75.8556 21.3193C75.8251 21.3397 75.6564 21.3278 75.5758 21.3193C75.525 21.349 75.4181 21.416 75.3978 21.4465C75.3774 21.4771 75.313 21.561 75.2833 21.5992L74.8255 21.3193L74.444 21.154C74.3762 21.1201 74.2024 21.0548 74.0498 21.0649C73.8972 21.0751 73.6895 21.0692 73.6048 21.0649C73.5327 21.0352 73.3733 20.9937 73.3123 21.0649C73.2512 21.1362 72.9308 21.0946 72.7782 21.0649H72.562C72.5747 21.0904 72.562 21.0955 72.4094 20.9123C72.2568 20.7291 72.0067 20.3526 71.9007 20.1872L71.5701 20.3271L71.4048 20.5561L71.3412 20.6833H71.1504L70.7689 20.7724L70.3874 21.0649L70.184 21.3702C70.1458 21.3957 70.0619 21.4618 70.0314 21.5229C70.0009 21.5839 69.8745 21.5992 69.8152 21.5992C69.7982 21.5822 69.7389 21.5916 69.6372 21.7646C69.5354 21.9376 69.4252 22.0741 69.3828 22.1207C69.3998 22.1843 69.4235 22.3319 69.3828 22.4133C69.332 22.5151 69.3447 22.6423 69.4719 22.8331C69.599 22.9476 70.0314 23.0112 70.0314 22.9476C70.0314 22.8967 70.1331 22.7652 70.184 22.7059C70.2221 22.6677 70.3162 22.5914 70.3874 22.5914C70.4587 22.5914 70.6206 22.549 70.6926 22.5278L70.8961 22.5914C70.9215 22.6295 70.9826 22.7059 71.0233 22.7059C71.064 22.7059 71.142 22.6804 71.1759 22.6677L71.2522 22.5278V22.4769C71.3242 22.4727 71.4785 22.4769 71.5192 22.5278C71.5701 22.5914 71.7736 22.7059 71.8371 22.7059C71.888 22.7059 71.9855 22.7907 72.0279 22.8331L72.4094 22.9984L72.6383 23.1129L72.8799 23.2401L73.1851 23.3928C73.2275 23.4267 73.3123 23.5047 73.3123 23.5454C73.3123 23.5861 73.3547 23.6981 73.3759 23.7489V23.9906L73.4903 24.1433L73.6683 24.2832H73.8464H73.999L74.1897 24.4104L74.444 24.4613H74.673L74.8891 24.4104L75.118 24.3468L75.3978 24.2832L75.5758 24.1433C75.6479 24.0924 75.8047 23.9906 75.8556 23.9906C75.9065 23.9906 76.0803 23.9398 76.1608 23.9143L76.6949 23.6853C76.7415 23.6302 76.85 23.5149 76.9111 23.4945C76.9721 23.4742 77.1061 23.3843 77.1654 23.3419H77.3307H77.5215C77.5723 23.3928 77.6842 23.4945 77.7249 23.4945C77.7656 23.4945 77.886 23.4267 77.9411 23.3928H78.1319H78.348L78.5897 23.2401L78.755 23.1511H78.9712H79.0983L79.1746 23.2401C79.1492 23.291 79.0983 23.403 79.0983 23.4437C79.2509 23.6853 79.2636 23.6853 79.3399 23.6853H79.518H79.7596V23.4945L80.2428 23.5454C80.3318 23.5285 80.5201 23.5047 80.5607 23.5454C80.6014 23.5861 80.849 23.5624 80.9677 23.5454L81.2474 23.4945L81.4509 23.4437L81.7307 23.3419L82.0232 23.2401L82.2775 23.1511L82.4937 23.0366H82.7099L82.9388 23.062H83.1931C83.2228 23.0663 83.2897 23.0671 83.3202 23.0366C83.3508 23.0061 83.4517 22.9221 83.4983 22.884L83.6509 22.7695L83.778 22.7059C83.7865 22.6931 83.8162 22.6652 83.8671 22.655C83.9179 22.6448 84.0069 22.6338 84.0451 22.6295L84.1595 22.6804C84.1723 22.7059 84.2028 22.7644 84.2231 22.7949L84.2994 22.9094H84.4012L84.5665 22.884L84.7699 22.8458L84.8844 22.7949C84.8971 22.7949 84.9353 22.8 84.9861 22.8204C85.037 22.8407 85.1345 22.8712 85.1769 22.884L85.3422 22.9476L85.6474 23.0112C85.7025 23.0408 85.8178 23.1027 85.8381 23.1129C85.8585 23.1231 86.0246 23.185 86.1052 23.2147L86.2959 23.3165L86.5503 23.4182L86.652 23.52L86.8428 23.5963C86.8682 23.6345 86.9241 23.7133 86.9445 23.7235C86.9648 23.7337 87.0293 23.7617 87.0589 23.7744L87.237 23.8889L87.3514 23.9779L87.5803 24.1433L87.8601 24.3341L88.0763 24.4613L88.356 24.6394L88.6739 24.792L88.9919 24.9701L89.3734 25.1482L89.615 25.2754L89.9202 25.4026C90.0134 25.4535 90.2025 25.5578 90.2127 25.568C90.2254 25.5807 90.2381 25.6443 90.4034 25.657C90.5687 25.6697 90.6705 25.7079 90.7213 25.7079H91.0392C91.0774 25.7079 91.1664 25.6952 91.1918 25.657C91.2173 25.6189 91.2809 25.6061 91.2936 25.568C91.3063 25.5298 91.3953 25.4662 91.4207 25.4662H91.6115H91.7768C91.8022 25.4662 91.9167 25.4026 91.9548 25.4026C91.993 25.4026 92.0566 25.3644 92.082 25.339C92.1074 25.3136 92.1583 25.25 92.171 25.1991C92.1837 25.1482 92.4126 25.0973 92.4508 25.0973H92.667L92.8577 25.0592C92.9043 25.0464 93.0027 25.021 93.023 25.021C93.0485 25.021 93.1629 24.9956 93.1629 24.9447V24.792C93.1671 24.7835 93.1655 24.764 93.1248 24.7539C93.0739 24.7411 93.0993 24.7284 92.9976 24.7411C92.8959 24.7539 92.8323 24.6394 92.8068 24.6394H92.667C92.6415 24.6394 92.5907 24.6648 92.5652 24.6775C92.5449 24.6877 92.4381 24.6818 92.3872 24.6775H92.2219H92.082L91.7768 24.7411L91.6115 24.792H91.3826H91.1028H90.8358H90.5433L90.3144 24.7539L90.1236 24.6775L90.0219 24.5631L89.8312 24.4231L88.6612 23.4182L88.4959 23.1765C88.4366 23.1214 88.3128 23.0112 88.2924 23.0112C88.2721 23.0112 88.1059 22.867 88.0254 22.7949L87.8219 22.6168L87.593 22.4769L87.4023 22.3624L87.2497 22.2607L86.9445 22.1334L86.652 22.0444L86.5503 21.9681V21.879H86.652C86.6902 21.879 86.8173 21.9681 86.8809 21.9681H87.1988C87.2497 21.9681 87.3641 22.0444 87.4913 22.0444H87.7838C87.8219 22.0444 87.9618 22.1334 88 22.1334C88.0381 22.1334 88.1398 22.1843 88.1907 22.1971C88.2416 22.2098 88.3942 22.2479 88.4578 22.2607C88.5086 22.2708 88.6994 22.2903 88.7884 22.2988L89.1063 22.337H89.4497H89.9456H90.2762H90.5814C90.612 22.337 90.8485 22.3115 90.9629 22.2988H91.0647L91.2936 22.1971L91.4207 22.1462H91.6878ZM82.748 13.051H82.2902H81.6417H81.5145H81.311L81.1711 13.1401L81.1076 13.2419L80.9931 13.4199L80.8405 13.6362L80.7769 13.9033L80.7133 14.2213L80.7769 14.3231L80.7133 14.6157L80.6498 14.9973L80.5353 15.5315C80.5141 15.7478 80.4717 16.1854 80.4717 16.2057V16.5619L80.3827 16.7018V16.8799L80.3446 17.1343L80.2937 17.4269C80.2683 17.5286 80.1665 17.6686 80.0902 17.694C79.9987 17.7245 79.9122 17.8297 79.874 17.8975L79.7723 18.1647L79.6579 18.4827L79.5688 18.788L79.3527 19.0042C79.3527 19.0424 79.2128 19.2713 79.2001 19.3222C79.1873 19.3731 79.1492 19.6275 79.1238 19.653C79.0983 19.6784 79.0983 19.9074 79.0729 19.9583C79.0475 20.0091 79.0983 20.2763 79.0983 20.3144C79.0983 20.345 79.234 20.3695 79.3018 20.378L79.4417 20.4162C79.5731 20.4162 79.8512 20.4086 79.9122 20.378C79.9885 20.3399 80.37 20.3653 80.459 20.3144C80.548 20.2635 80.7642 20.3144 80.8405 20.3144C80.9168 20.3144 81.2474 20.2763 81.2856 20.2763C81.3161 20.2763 81.4594 20.2169 81.5272 20.1872C81.6247 20.166 81.8248 20.1236 81.8451 20.1236H82.0995L82.7226 19.971C82.8116 19.9413 82.9998 19.8743 83.0405 19.8438C83.0812 19.8132 83.244 19.7547 83.3203 19.7293C83.3923 19.725 83.5466 19.7191 83.5873 19.7293C83.6382 19.742 83.7526 19.6911 83.9688 19.6275C84.1417 19.5766 84.1087 19.4452 84.0705 19.3858V19.0933L84.0197 18.559L83.8671 18.3809C83.8289 18.2876 83.7526 18.0858 83.7526 18.0247V17.7322C83.7653 17.6304 83.7908 17.4193 83.7908 17.3887V17.0325C83.7908 17.002 83.7653 16.7993 83.7526 16.7018V16.511L83.6636 15.5697L83.4728 15.099L83.4093 14.7556C83.3796 14.5521 83.3279 14.1374 83.3584 14.1068C83.3889 14.0763 83.3881 13.9584 83.3838 13.9033C83.3584 13.8694 83.3024 13.7914 83.2821 13.7507C83.2618 13.71 83.2058 13.6065 83.1804 13.5599L83.1422 13.3945C83.1083 13.3818 83.0252 13.3258 82.9642 13.2037C82.8879 13.051 82.8116 13.051 82.748 13.051Z" fill="white"/>
<path d="M95.5328 10.685C95.7153 10.5478 95.8169 10.3301 95.8169 10.1018C92.7119 12.6334 87.4162 13.4556 83.5059 12.8798L83.4728 12.9238L83.5746 13.2037L83.4255 13.2287C87.2469 13.8062 92.3757 13.0586 95.5328 10.685Z" fill="white"/>
<path d="M80.2047 12.1733C80.2289 12.172 80.2537 12.1706 80.2791 12.1692C74.2481 10.4286 69.8873 6.29915 66.5392 3.46137C66.9193 3.84115 67.2657 4.24562 67.578 4.67108C70.9542 7.33608 74.6371 10.8364 79.9784 12.4414C80.0486 12.2831 80.1802 12.1711 80.2047 12.1733Z" fill="white"/>
<path fill-rule="evenodd" clip-rule="evenodd" d="M31.0783 0.108396C30.9683 0.166131 29.0033 2.07859 26.7116 4.35826C23.5075 7.54555 22.4067 8.59992 21.9467 8.92192C21.3285 9.35467 19.9815 10.0655 19.5142 10.2055C19.2703 10.2786 19.2235 10.3332 18.9549 10.8584C18.7937 11.1738 18.5994 11.6267 18.523 11.8651C18.3865 12.2918 18.1575 13.3999 18.1977 13.4401C18.239 13.4814 19.7619 13.112 20.3449 12.9192C21.054 12.6848 22.0927 12.2006 22.7449 11.8005C23.9468 11.0633 24.4442 10.6093 28.7305 6.33672C32.165 2.91328 32.9972 2.05005 33.0577 1.84811C33.1729 1.4639 33.0377 1.11716 32.5889 0.646412C31.9983 0.0269274 31.5426 -0.135344 31.0783 0.108396ZM22.5116 2.99928C20.9347 3.21896 19.4924 3.77657 18.145 4.68733C17.3516 5.22355 15.9366 6.63866 15.4009 7.43161C14.1516 9.2808 13.5712 10.9521 13.309 13.4565C13.2346 14.1671 13.113 15.0637 13.0386 15.4488C12.6715 17.3513 11.8321 19.0442 10.5128 20.5431L10.1783 20.9231V21.4836C10.1783 21.8266 10.2302 22.2472 10.3122 22.5675C10.4432 23.0799 10.88 24.0654 10.976 24.0654C11.0726 24.0654 12.8925 22.1514 13.3215 21.5987C14.446 20.1497 15.1362 18.7373 15.5697 16.9986C15.7558 16.2519 16.0188 14.6813 16.1112 13.7651C16.5144 9.76602 18.7988 6.74073 21.9783 5.99517C22.3315 5.9123 22.3969 5.8577 23.7609 4.50486C25.0555 3.22102 25.1641 3.09582 25.0276 3.04448C24.8071 2.96161 23.0131 2.92935 22.5116 2.99928ZM34.5449 3.4935C34.4349 3.5431 32.4526 5.48449 30.1398 7.80769C25.9053 12.0612 25.4445 12.5668 24.7095 13.7651C24.3095 14.4174 23.8253 15.4561 23.5908 16.1652C23.398 16.7482 23.0287 18.2712 23.07 18.3125C23.1104 18.3529 24.2193 18.1234 24.6449 17.9866C25.0803 17.8467 25.9251 17.4573 26.1116 17.3106C26.1666 17.2673 26.3119 16.983 26.4345 16.6787C26.7177 15.976 27.1559 15.1792 27.6335 14.4985C27.8971 14.1229 29.2343 12.7322 32.1525 9.79835C34.4321 7.50662 36.3455 5.53556 36.4045 5.41822C36.6351 4.95881 36.4852 4.52253 35.9002 3.95118C35.3733 3.43656 34.972 3.30102 34.5449 3.4935ZM32.0009 12.7491C30.7717 13.985 30.5868 14.1982 30.5471 14.4253C30.4707 14.8636 30.1223 15.7495 29.8133 16.2919C28.5962 18.4277 26.0827 19.9861 23.3029 20.3283C20.7977 20.6368 19.7278 20.8392 18.545 21.2286C17.19 21.6745 16.1168 22.2535 14.9116 23.1889C14.3589 23.6179 12.445 25.4378 12.445 25.5344C12.445 25.6305 13.4304 26.0672 13.9428 26.1983C14.6124 26.3696 15.5856 26.384 15.7178 26.2248C15.8704 26.0409 16.7214 25.3677 17.245 25.0167C18.3501 24.2757 19.6821 23.7364 21.053 23.4749C21.7061 23.3503 22.0098 23.3105 23.7116 23.1265C24.5727 23.0333 25.9439 22.6896 26.7449 22.3661C28.2357 21.764 29.3665 21.0113 30.55 19.8331C32.0737 18.3164 32.9562 16.725 33.3906 14.711C33.5114 14.1511 33.5369 13.8211 33.5357 12.8318C33.5349 12.1718 33.5061 11.5645 33.4717 11.4824C33.4137 11.3441 33.3054 11.4373 32.0009 12.7491ZM11.0116 12.2518C9.9695 12.8099 9.13183 13.4488 8.1917 14.4028C6.77104 15.8444 5.85837 17.5892 5.47397 19.5986C5.30677 20.4726 5.30677 22.1915 5.47397 23.0654C6.25664 27.1565 9.35403 30.254 13.445 31.0366C14.3189 31.2039 16.0377 31.2039 16.9116 31.0366C17.7912 30.8684 18.8238 30.5208 19.6116 30.1278C21.4946 29.1886 23.3368 27.3217 24.3461 25.3297L24.5202 24.9863L24.3325 25.024C24.2293 25.0448 23.6649 25.1231 23.0783 25.1981C22.4916 25.2731 21.7567 25.3813 21.4451 25.4385L20.8787 25.5426L20.2785 26.1559C19.3079 27.1476 18.2366 27.7841 16.9233 28.1492C16.4857 28.2708 16.233 28.2914 15.1783 28.2914C14.1197 28.2914 13.8716 28.271 13.4274 28.1476C10.9263 27.453 9.05797 25.583 8.36137 23.0771C8.23977 22.6395 8.21917 22.3868 8.21917 21.332C8.21917 20.2773 8.23977 20.0246 8.36137 19.587C8.72643 18.2737 9.3629 17.2023 10.3546 16.2317L10.9678 15.6315L11.0726 15.065C11.1302 14.7534 11.2376 14.0185 11.3113 13.4318C11.385 12.8451 11.4625 12.2826 11.4837 12.1818C11.5049 12.081 11.5124 11.9992 11.5002 12.0001C11.4882 12.0011 11.2683 12.1144 11.0116 12.2518ZM3.53411 27.5489C3.01571 28.0714 2.54358 28.5949 2.48498 28.7122C2.24978 29.1828 2.40651 29.6183 3.02211 30.2052C3.46044 30.6232 3.79697 30.7686 4.16597 30.6996C4.36424 30.6625 4.57497 30.4921 5.25804 29.8165L6.10437 28.9794L5.81724 28.6058C5.4625 28.1442 4.9337 27.3352 4.71177 26.9145C4.62017 26.7409 4.52977 26.5988 4.51091 26.5988C4.49204 26.5988 4.05244 27.0264 3.53411 27.5489ZM6.69184 31.2549C6.01824 31.9359 5.84804 32.1465 5.81104 32.3447C5.74204 32.7137 5.88744 33.0502 6.30537 33.4886C6.9085 34.1213 7.33077 34.2639 7.83097 34.0038C8.0713 33.8789 9.9687 32.029 9.90843 31.9784C9.89183 31.9645 9.59197 31.7861 9.24203 31.582C8.8921 31.3779 8.36297 31.0308 8.06623 30.8108L7.52677 30.4107L6.69184 31.2549Z" fill="white"/>
</svg>
