<svg width="76" height="83" viewBox="0 0 76 83" fill="none" xmlns="http://www.w3.org/2000/svg">
<path d="M21.1384 11.4602L4.31836 21.1934V40.6598V60.1261L21.1384 69.8593L37.9586 79.5925L54.7787 69.8593L71.5988 60.1261V40.6598V21.1934L54.7787 11.4602L37.9586 1.72705L21.1384 11.4602Z" stroke="#99AB47" stroke-width="3.45455" stroke-linecap="round" stroke-linejoin="round"/>
<path d="M37.9586 1.72705V40.6598M37.9586 40.6598L71.5988 60.1261M37.9586 40.6598V79.5925M37.9586 40.6598L4.31836 60.1261M37.9586 40.6598L4.31836 21.1934M37.9586 40.6598L47.978 34.8619M47.978 34.8619L55.7127 30.3861M47.978 34.8619V61.3199M71.5988 21.1934L55.7127 30.3861M55.7127 30.3861V56.2206M22.905 11.1525V44.6969M31.0034 6.41178V40.0999M23.335 19.5566L31.0034 15.0496M23.335 27.8752L31.0034 23.3683M23.335 37.7831L31.0034 33.2761M47.978 61.3199L45.4502 59.645L53.8431 54.9053L55.7127 56.2206M47.978 61.3199L51.4592 63.7828L59.8171 59.0627L55.7127 56.2206" stroke="#99AB47" stroke-width="3.45455" stroke-linecap="round" stroke-linejoin="round"/>
</svg>
