<svg width="16" height="16" viewBox="0 0 16 16" fill="none" xmlns="http://www.w3.org/2000/svg">
<path d="M13.2796 14.4264C11.8464 15.8597 8.17586 14.513 5.08131 11.4184C1.98676 8.32388 0.640027 4.65336 2.07329 3.22009L3.01698 2.2764C3.66847 1.62491 4.74195 1.64213 5.41468 2.31486L6.87638 3.77656C7.54911 4.44929 7.56633 5.52277 6.91485 6.17426L6.71215 6.37695C6.36041 6.7287 6.32599 7.29614 6.65283 7.6922C6.96809 8.07424 7.30796 8.45476 7.67647 8.82327C8.04498 9.19178 8.4255 9.53165 8.80753 9.84691C9.2036 10.1737 9.77104 10.1393 10.1228 9.78759L10.3255 9.58489C10.977 8.93341 12.0504 8.95063 12.7232 9.62335L14.1849 11.0851C14.8576 11.7578 14.8748 12.8313 14.2233 13.4828L13.2796 14.4264Z" stroke="#D1EB59" stroke-width="1.5"/>
<path d="M12.2278 6.19896C12.0488 5.76246 11.7822 5.35351 11.4277 4.99909C11.0933 4.66468 10.7104 4.40838 10.3015 4.2302" stroke="#D1EB59" stroke-width="1.5" stroke-linecap="round"/>
<path d="M10.3011 1.73503C11.2799 2.08963 12.1983 2.65928 12.983 3.44399C13.7874 4.2484 14.3658 5.19325 14.7182 6.19967" stroke="#D1EB59" stroke-width="1.5" stroke-linecap="round"/>
</svg>
