<svg width="68" height="67" viewBox="0 0 68 67" fill="none" xmlns="http://www.w3.org/2000/svg">
<g clip-path="url(#clip0_248_1795)">
<g clip-path="url(#clip1_248_1795)">
<path d="M78.962 57.6532C73.0321 57.8326 67.1001 57.994 61.1702 58.1958C51.5622 58.5253 41.9473 58.7338 32.3483 59.2652C21.7733 59.8504 11.2637 58.8527 0.731547 58.3886C-1.40734 58.2944 -3.55073 58.2159 -5.68285 58.0747C-6.05022 58.05 -6.39731 57.7541 -6.75342 57.5815C-6.40407 57.4649 -6.04797 57.2295 -5.70313 57.2452C0.521944 57.5501 6.74702 57.8841 12.9721 58.2115L22.5531 58.7114C22.3683 58.4715 22.2736 58.328 22.161 58.2025C21.0791 57.0075 20.9957 55.8686 21.9694 54.5682C23.5471 52.472 25.1045 50.3712 26.7407 48.3287C27.025 47.9891 27.2358 47.5948 27.3599 47.1705C27.484 46.7461 27.5187 46.3009 27.462 45.8626C27.2974 43.791 27.2501 41.7104 27.1419 39.3182C29.0599 41.1118 30.7796 42.6812 32.4655 44.2932C32.6458 44.468 32.6615 44.838 32.6908 45.1249C33.0402 47.5911 32.5984 49.7479 30.7954 51.7142C28.8864 53.7947 27.3155 56.1802 25.4403 58.6352L38.8438 58.133C37.8183 54.3911 36.8153 50.7075 35.7808 47.0351C35.6704 46.6405 35.3301 46.2728 35.0145 45.9769C32.5579 43.6676 30.0764 41.3853 27.6175 39.0805C27.1306 38.6321 26.7159 38.1008 26.1187 37.4596C25.6409 38.1479 25.1563 38.8227 24.6965 39.5177C24.4306 39.9213 24.2232 40.3652 23.9595 40.7732C23.1842 41.9727 22.3953 42.0803 21.4555 40.9974C20.7237 40.1957 20.1105 39.2943 19.6344 38.3205C17.473 33.4845 15.3927 28.6082 13.2876 23.7475C12.9608 22.9942 12.7197 22.1938 12.3117 21.4876C11.9586 20.9224 11.4699 20.4533 10.8896 20.1222C11.2276 18.7031 9.69953 18.369 9.10452 17.4857C8.96253 17.2615 8.42838 17.2615 8.07453 17.2615C3.60744 17.112 -0.859658 16.9625 -5.32675 16.8131C-5.66372 16.8246 -6.00091 16.7982 -6.33195 16.7346C-6.49648 16.6897 -6.60917 16.4454 -6.7444 16.2862C-6.57987 16.1696 -6.42887 15.9925 -6.24631 15.9521C-5.9852 15.9185 -5.72082 15.9185 -5.45972 15.9521C-0.952064 16.0956 3.55559 16.2593 8.06325 16.3669C8.60643 16.3804 9.15411 16.0597 9.7108 15.9521C10.0904 15.8622 10.4841 15.8477 10.8693 15.9095C11.5251 16.0553 12.1494 16.4633 12.7963 16.4902C18.05 16.7144 23.3059 16.8669 28.5618 17.044C29.1028 17.0619 29.7451 16.9431 29.7428 17.9094L11.879 17.3422L11.6356 17.6112C11.9624 18.008 12.3117 18.3869 12.607 18.8062C12.8459 19.1492 13.2831 19.7344 13.1704 19.8756C12.5822 20.6491 13.1704 21.2208 13.4161 21.806C15.4851 26.7675 17.5654 31.7223 19.7043 36.6547C20.1753 37.7421 20.8605 38.7442 21.5074 39.7464C21.7981 40.1948 22.2376 40.5513 22.7537 41.1073C23.3014 40.2105 23.7567 39.4975 24.1759 38.7667C25.0256 37.2825 26.0443 36.2736 27.9803 36.1144C29.7834 35.9709 31.5211 35.2333 33.2926 34.7692C33.522 34.7323 33.7548 34.7203 33.9868 34.7333C33.9147 34.9575 33.9012 35.2176 33.7614 35.3723C33.0695 36.1256 33.0853 36.9865 33.8899 37.7398C35.72 39.4594 37.6042 41.1185 39.3757 42.8964C39.9997 43.5258 40.4634 44.2945 40.728 45.1384C41.6836 48.3549 42.5649 51.5946 43.3717 54.8574C43.5971 55.7924 43.5318 56.8035 43.6107 57.9626L78.962 56.7564V57.6532Z" fill="#60A9FF"/>
<path d="M78.9621 16.4005L59.5071 17.183C57.0279 17.2816 54.5599 17.4072 52.083 17.4812C51.4293 17.4991 51.098 17.6785 50.7149 18.2748C49.1372 20.7276 47.4829 23.1265 45.7565 25.4761C45.4454 25.9021 44.7039 26.1734 44.1382 26.2182C43.4621 26.2743 42.7589 26.0097 41.9971 25.873C42.7791 22.7342 45.4206 20.8173 46.6963 18.0955L44.9541 17.7457C44.9721 17.6045 44.9902 17.4633 45.0104 17.3198C45.4383 17.227 45.8709 17.1574 46.3064 17.1113C47.0389 17.0687 47.6339 16.9095 48.1545 16.2795C48.7608 15.5463 49.5609 15.6226 50.3836 16.1136C50.8538 16.4211 51.399 16.5962 51.9613 16.6203C60.9608 16.2728 69.9558 15.8826 78.9531 15.4993L78.9621 16.4005Z" fill="#60A9FF"/>
<path d="M34.0926 26.9379C33.7771 28.9288 33.4773 30.8345 33.1911 32.7155L34.0926 33.1639C33.9619 33.3679 33.8672 33.6661 33.6914 33.7625C31.0725 35.1077 28.2439 35.5763 25.3297 35.648C25.2463 35.648 25.1607 35.5247 25.2801 35.6189C25.3793 34.5584 25.5596 33.6639 25.5326 32.7738C25.4379 29.8592 26.0104 27.0567 26.9683 24.326C27.996 21.3979 30.0132 20.2724 33.0739 20.8419C34.9491 21.1939 36.831 21.5145 38.9113 21.8912L38.2352 23.5188L33.1776 22.2252C31.6269 21.8306 30.4346 22.3777 30.1078 23.6309C29.772 24.9223 30.491 25.9559 32.0416 26.3931C32.6907 26.5724 33.3714 26.7428 34.0926 26.9379Z" fill="#60A9FF"/>
<path d="M38.492 24.0816L40.872 18.5214C41.0207 18.1784 41.156 17.8309 41.3228 17.4968C41.8096 16.526 42.6751 16.1516 43.5315 16.4969C43.7427 16.5823 43.9343 16.7092 44.0949 16.8702C44.2554 17.0311 44.3816 17.2227 44.4658 17.4334C44.55 17.6441 44.5905 17.8695 44.5849 18.0962C44.5793 18.3229 44.5276 18.546 44.433 18.7523C43.3399 21.4091 42.195 24.0435 41.0523 26.6756C40.6737 27.5387 39.9727 27.9042 39.0239 27.6688C36.6258 27.0679 34.2254 26.4693 31.8409 25.8191C30.8177 25.5411 30.3151 24.6667 30.5404 23.7901C30.7816 22.8485 31.6674 22.3552 32.7447 22.6198C34.6244 23.0816 36.5041 23.5749 38.492 24.0816Z" fill="#60A9FF"/>
<path d="M40.3402 13.5016C37.5139 12.9209 35.2984 14.3715 32.8823 14.9185C32.0485 15.1282 31.191 15.23 30.331 15.2212C29.035 15.1696 28.4085 14.2997 28.5685 13.0106C28.711 11.8627 29.2156 10.7893 30.0099 9.9445C30.8041 9.09974 31.847 8.52713 32.9889 8.30893C34.1307 8.09072 35.3127 8.23816 36.3651 8.73004C37.4174 9.22193 38.286 10.0329 38.846 11.0466C39.2719 11.8111 39.7452 12.5443 40.3402 13.5016ZM37.0564 10.587C36.831 11.0668 36.5944 11.3717 36.6575 11.4547C36.9329 11.7679 37.2345 12.0574 37.559 12.3201C37.6807 12.1542 37.9377 11.9232 37.8948 11.8358C37.6457 11.3952 37.3655 10.9726 37.0564 10.5713V10.587Z" fill="#60A9FF"/>
<path d="M33.9395 16.8489C33.9981 15.7728 34.2865 15.0038 35.4608 14.7706C36.4412 14.5778 37.4013 14.2886 38.3705 14.0464C38.9768 13.8985 39.2472 14.1047 39.2991 14.7616C39.4658 16.9408 37.8882 19.2232 35.7448 19.694C35.5341 19.7036 35.3243 19.6607 35.1346 19.569C34.9448 19.4774 34.7811 19.34 34.6584 19.1694C34.3113 18.4363 34.1648 17.6202 33.9395 16.8489Z" fill="#60A9FF"/>
<path d="M33.9483 19.7635C31.8725 19.777 30.0198 18.1089 29.7651 15.9028C30.3894 15.8737 31.016 15.8692 31.6358 15.8086C32.2556 15.7481 32.8078 15.6293 33.2744 15.5553C33.502 16.97 33.7274 18.369 33.9483 19.7635Z" fill="#60A9FF"/>
<path d="M40.6716 17.4475C40.3043 18.286 40.3043 18.286 38.9497 18.1201C39.1503 17.0507 39.9053 17.3892 40.6716 17.4475Z" fill="#60A9FF"/>
</g>
</g>
<rect x="0.9" y="0.9" width="65.8979" height="65.2" rx="1.89167" stroke="#60A9FF" stroke-width="1.8"/>
<defs>
<clipPath id="clip0_248_1795">
<rect width="67.6979" height="67" rx="2.79167" fill="white"/>
</clipPath>
<clipPath id="clip1_248_1795">
<rect width="103" height="63" fill="white" transform="translate(-15 5)"/>
</clipPath>
</defs>
</svg>
