<svg width="1920" height="1080" viewBox="0 0 1920 1080" fill="none" xmlns="http://www.w3.org/2000/svg">
<g opacity="0.6">
<path d="M-449.256 -119.967C-445.928 -74.6736 -421.334 30.2787 -349.58 87.7419C-259.888 159.571 -152.787 146.088 -39.4247 227.547C73.9374 309.006 117.813 458.488 115.489 581.096C113.164 703.705 58.355 792.394 170.435 882.418C282.514 972.443 480.344 968.393 647.062 906.359C813.781 844.325 937.007 737.335 990.563 619.601C982.153 589.397 994.242 510.216 1109.87 435.12C1254.41 341.249 1435.88 344.399 1538.89 390.717C1641.9 437.035 1774.96 452.996 1831.89 335.836C1877.44 242.109 1939.03 59.7081 1964.13 -19.7763" stroke="#19C8FF" stroke-dasharray="12 12"/>
<ellipse cx="17.2082" cy="282.789" rx="12.7839" ry="12.9424" transform="rotate(-17.7685 17.2082 282.789)" fill="#92CAFF"/>
<ellipse cx="109.755" cy="487.799" rx="12.7839" ry="12.9424" transform="rotate(-17.7685 109.755 487.799)" fill="#92CAFF"/>
<ellipse cx="102.996" cy="692.92" rx="12.7839" ry="12.9424" transform="rotate(-17.7685 102.996 692.92)" fill="#92CAFF"/>
<ellipse cx="162.505" cy="878.618" rx="12.7839" ry="12.9424" transform="rotate(-17.7685 162.505 878.618)" fill="#92CAFF"/>
<ellipse cx="368.907" cy="950.194" rx="12.7839" ry="12.9424" transform="rotate(-17.7685 368.907 950.194)" fill="#92CAFF"/>
<ellipse cx="600.658" cy="922.136" rx="12.7839" ry="12.9424" transform="rotate(-17.7685 600.658 922.136)" fill="#92CAFF"/>
<ellipse cx="1885.12" cy="208.226" rx="12.7839" ry="12.9424" transform="rotate(-17.7685 1885.12 208.226)" fill="#92CAFF"/>
<ellipse cx="1729.12" cy="422.226" rx="12.7839" ry="12.9424" transform="rotate(-17.7685 1729.12 422.226)" fill="#92CAFF"/>
<ellipse cx="801.342" cy="830.643" rx="12.7839" ry="12.9424" transform="rotate(-17.7685 801.342 830.643)" fill="#92CAFF"/>
</g>
</svg>
